<svg width="46" height="36" viewBox="0 0 46 36" fill="none" xmlns="http://www.w3.org/2000/svg">
<g id="ant-design:stock-outlined" clip-path="url(#clip0_13_99)">
<path id="Vector" d="M45.9688 31.7695H0.03125C-0.226562 31.7695 -0.4375 31.9805 -0.4375 32.2383V35.5195C-0.4375 35.7773 -0.226562 35.9883 0.03125 35.9883H45.9688C46.2266 35.9883 46.4375 35.7773 46.4375 35.5195V32.2383C46.4375 31.9805 46.2266 31.7695 45.9688 31.7695ZM2.70898 24.4336L5.03516 26.7481C5.2168 26.9297 5.51562 26.9297 5.69727 26.7481L19.4492 13.043L25.168 18.7441C25.5203 19.0932 25.9962 19.2891 26.4922 19.2891C26.9882 19.2891 27.4641 19.0932 27.8164 18.7441L43.2969 3.32227C43.4785 3.14063 43.4785 2.8418 43.2969 2.66016L40.9707 0.339847C40.8826 0.252611 40.7636 0.203674 40.6396 0.203674C40.5157 0.203674 40.3967 0.252611 40.3086 0.339847L26.498 14.1094L20.7734 8.40821C20.4211 8.05912 19.9452 7.86328 19.4492 7.86328C18.9532 7.86328 18.4773 8.05912 18.125 8.40821L2.70898 23.7715C2.66516 23.8148 2.63036 23.8663 2.6066 23.9231C2.58285 23.98 2.57062 24.041 2.57062 24.1025C2.57062 24.1641 2.58285 24.2251 2.6066 24.2819C2.63036 24.3388 2.66516 24.3903 2.70898 24.4336Z" fill="#FFDB5B"/>
</g>
<defs>
<clipPath id="clip0_13_99">
<rect width="46" height="36" fill="white"/>
</clipPath>
</defs>
</svg>
